# xmcd CD database file
#
# Track frame offsets:
#	150
#	7990
#	23507
#	34205
#	49602
#	66257
#	75907
#	93685
#	107165
#	125235
#	139735
#	159090
#	168965
#	183170
#	197130
#
# Disc length: 2807 seconds
#
# Revision: 5
# Processed by: cddbd v1.5PL3 Copyright (c) Steve Scherf et al.
# Submitted via: CDex 1.50beta10
#
DISCID=b90af50f
DTITLE=Lightning Hopkins - Coffee House Blues - Charly Blues Masterworks - Vol. 33
DYEAR=1993
DGENRE=Blues
TTITLE0=Intro
TTITLE1=Big Car Blues
TTITLE2=Coffee House Blues
TTITLE3=Stool Pidgeon Blues
TTITLE4=Ball Of Twine
TTITLE5=Mary Lou
TTITLE6=Want To Come Home
TTITLE7=Rolling And Rolling
TTITLE8=Devil Is Watching You
TTITLE9=Please Dont Quit Me
TTITLE10=Coon Is Hard To Catch
TTITLE11=Heavy Snow
TTITLE12=Walking Round In Circles
TTITLE13=War Is Starting Again
TTITLE14=Got Me A Louisiana Woman
EXTD=YEAR: 1993
EXTT0=
EXTT1=
EXTT2=
EXTT3=
EXTT4=
EXTT5=
EXTT6=
EXTT7=
EXTT8=
EXTT9=
EXTT10=
EXTT11=
EXTT12=
EXTT13=
EXTT14=
PLAYORDER=
